<?xml version="1.0" encoding="UTF-8"?>
<!DOCTYPE svg PUBLIC "-//W3C//DTD SVG 1.1//EN" "http://www.w3.org/Graphics/SVG/1.1/DTD/svg11.dtd">
<svg width="240mm" height="135mm" viewBox="0 0 24000 13500" version="1.1" xmlns="http://www.w3.org/2000/svg" xmlns:xlink="http://www.w3.org/1999/xlink" stroke-width="28.222" stroke-linejoin="round" xml:space="preserve">
 <path fill="rgb(255,255,255)" stroke="none" d="M 11977,13493 L 0,13493 0,0 23954,0 23954,13493 11977,13493 Z"/>
 <path fill="none" stroke="rgb(179,179,179)" stroke-linejoin="round" d="M 10666,11142 L 2834,11142 2834,2252 18497,2252 18497,11142 10666,11142 Z"/>
 <path fill="none" stroke="rgb(179,179,179)" stroke-linejoin="round" d="M 18497,11141 L 2834,11141"/>
 <path fill="none" stroke="rgb(179,179,179)" stroke-linejoin="round" d="M 18497,9659 L 2834,9659"/>
 <path fill="none" stroke="rgb(179,179,179)" stroke-linejoin="round" d="M 18497,8177 L 2834,8177"/>
 <path fill="none" stroke="rgb(179,179,179)" stroke-linejoin="round" d="M 18497,6696 L 2834,6696"/>
 <path fill="none" stroke="rgb(179,179,179)" stroke-linejoin="round" d="M 18497,5214 L 2834,5214"/>
 <path fill="none" stroke="rgb(179,179,179)" stroke-linejoin="round" d="M 18497,3732 L 2834,3732"/>
 <path fill="none" stroke="rgb(179,179,179)" stroke-linejoin="round" d="M 18497,2250 L 2834,2250"/>
 <path fill="none" stroke="rgb(179,179,179)" stroke-linejoin="round" d="M 2834,11291 L 2834,11141"/>
 <path fill="none" stroke="rgb(179,179,179)" stroke-linejoin="round" d="M 2834,11291 L 2834,11141"/>
 <path fill="none" stroke="rgb(179,179,179)" stroke-linejoin="round" d="M 4139,11291 L 4139,11141"/>
 <path fill="none" stroke="rgb(179,179,179)" stroke-linejoin="round" d="M 4139,11291 L 4139,11141"/>
 <path fill="none" stroke="rgb(179,179,179)" stroke-linejoin="round" d="M 5444,11291 L 5444,11141"/>
 <path fill="none" stroke="rgb(179,179,179)" stroke-linejoin="round" d="M 5444,11291 L 5444,11141"/>
 <path fill="none" stroke="rgb(179,179,179)" stroke-linejoin="round" d="M 6750,11291 L 6750,11141"/>
 <path fill="none" stroke="rgb(179,179,179)" stroke-linejoin="round" d="M 6750,11291 L 6750,11141"/>
 <path fill="none" stroke="rgb(179,179,179)" stroke-linejoin="round" d="M 8055,11291 L 8055,11141"/>
 <path fill="none" stroke="rgb(179,179,179)" stroke-linejoin="round" d="M 8055,11291 L 8055,11141"/>
 <path fill="none" stroke="rgb(179,179,179)" stroke-linejoin="round" d="M 9360,11291 L 9360,11141"/>
 <path fill="none" stroke="rgb(179,179,179)" stroke-linejoin="round" d="M 9360,11291 L 9360,11141"/>
 <path fill="none" stroke="rgb(179,179,179)" stroke-linejoin="round" d="M 10666,11291 L 10666,11141"/>
 <path fill="none" stroke="rgb(179,179,179)" stroke-linejoin="round" d="M 10666,11291 L 10666,11141"/>
 <path fill="none" stroke="rgb(179,179,179)" stroke-linejoin="round" d="M 11971,11291 L 11971,11141"/>
 <path fill="none" stroke="rgb(179,179,179)" stroke-linejoin="round" d="M 11971,11291 L 11971,11141"/>
 <path fill="none" stroke="rgb(179,179,179)" stroke-linejoin="round" d="M 13275,11291 L 13275,11141"/>
 <path fill="none" stroke="rgb(179,179,179)" stroke-linejoin="round" d="M 13275,11291 L 13275,11141"/>
 <path fill="none" stroke="rgb(179,179,179)" stroke-linejoin="round" d="M 14581,11291 L 14581,11141"/>
 <path fill="none" stroke="rgb(179,179,179)" stroke-linejoin="round" d="M 14581,11291 L 14581,11141"/>
 <path fill="none" stroke="rgb(179,179,179)" stroke-linejoin="round" d="M 15886,11291 L 15886,11141"/>
 <path fill="none" stroke="rgb(179,179,179)" stroke-linejoin="round" d="M 15886,11291 L 15886,11141"/>
 <path fill="none" stroke="rgb(179,179,179)" stroke-linejoin="round" d="M 17191,11291 L 17191,11141"/>
 <path fill="none" stroke="rgb(179,179,179)" stroke-linejoin="round" d="M 17191,11291 L 17191,11141"/>
 <path fill="none" stroke="rgb(179,179,179)" stroke-linejoin="round" d="M 18497,11291 L 18497,11141"/>
 <path fill="none" stroke="rgb(179,179,179)" stroke-linejoin="round" d="M 18497,11291 L 18497,11141"/>
 <path fill="none" stroke="rgb(179,179,179)" stroke-linejoin="round" d="M 2834,11141 L 18497,11141"/>
 <path fill="none" stroke="rgb(179,179,179)" stroke-linejoin="round" d="M 2684,11141 L 2834,11141"/>
 <path fill="none" stroke="rgb(179,179,179)" stroke-linejoin="round" d="M 2684,11141 L 2834,11141"/>
 <path fill="none" stroke="rgb(179,179,179)" stroke-linejoin="round" d="M 2684,9659 L 2834,9659"/>
 <path fill="none" stroke="rgb(179,179,179)" stroke-linejoin="round" d="M 2684,9659 L 2834,9659"/>
 <path fill="none" stroke="rgb(179,179,179)" stroke-linejoin="round" d="M 2684,8177 L 2834,8177"/>
 <path fill="none" stroke="rgb(179,179,179)" stroke-linejoin="round" d="M 2684,8177 L 2834,8177"/>
 <path fill="none" stroke="rgb(179,179,179)" stroke-linejoin="round" d="M 2684,6696 L 2834,6696"/>
 <path fill="none" stroke="rgb(179,179,179)" stroke-linejoin="round" d="M 2684,6696 L 2834,6696"/>
 <path fill="none" stroke="rgb(179,179,179)" stroke-linejoin="round" d="M 2684,5214 L 2834,5214"/>
 <path fill="none" stroke="rgb(179,179,179)" stroke-linejoin="round" d="M 2684,5214 L 2834,5214"/>
 <path fill="none" stroke="rgb(179,179,179)" stroke-linejoin="round" d="M 2684,3732 L 2834,3732"/>
 <path fill="none" stroke="rgb(179,179,179)" stroke-linejoin="round" d="M 2684,3732 L 2834,3732"/>
 <path fill="none" stroke="rgb(179,179,179)" stroke-linejoin="round" d="M 2684,2250 L 2834,2250"/>
 <path fill="none" stroke="rgb(179,179,179)" stroke-linejoin="round" d="M 2684,2250 L 2834,2250"/>
 <path fill="none" stroke="rgb(179,179,179)" stroke-linejoin="round" d="M 2834,11141 L 2834,2250"/>
 <path fill="none" stroke="rgb(245,146,27)" stroke-width="80" stroke-linejoin="round" d="M 9360,6212 L 9425,6111 9491,6010 9556,5911 9621,5814 9687,5719 9752,5627 9817,5539 9882,5454 9948,5375 10013,5301 10078,5233 10143,5172 10209,5117 10274,5071 10339,5033 10404,5004 10470,4984 10535,4975 10600,4976 10666,4989 10731,5013 10796,5049 10861,5095 10927,5151 10992,5216 11057,5289 11122,5369 11188,5456 11253,5549 11318,5647 11383,5749 11449,5855 11514,5964 11579,6075 11645,6187 11710,6300 11775,6412 11840,6524 11906,6634 11971,6741 12035,6845 12100,6945 12166,7043 12231,7137 12296,7227 12361,7313 12427,7395 12492,7473 12557,7547 12623,7617 12688,7682 12753,7743 12818,7799 12884,7850 12949,7896 13014,7937 13079,7973 13145,8004 13210,8029 13275,8049 13340,8063 13406,8072 13471,8076 13536,8075 13602,8069 13667,8059 13732,8045 13797,8028 13863,8007 13928,7983 13993,7956 14058,7927 14124,7896 14189,7862 14254,7827 14319,7790 14385,7752 14450,7714 14515,7675 14581,7635"/>
 <path fill="none" stroke="rgb(0,102,204)" stroke-width="80" stroke-linejoin="round" d="M 2834,5151 L 2899,5057 2964,4964 3029,4872 3095,4781 3160,4692 3225,4605 3290,4520 3356,4438 3421,4359 3486,4284 3551,4213 3617,4146 3682,4085 3747,4028 3813,3978 3878,3933 3943,3895 4008,3864 4074,3840 4139,3824 4204,3816 4269,3815 4335,3821 4400,3832 4465,3848 4530,3868 4596,3890 4661,3915 4726,3940 4792,3967 4857,3992 4922,4016 4987,4038 5053,4057 5118,4072 5183,4081 5248,4085 5314,4083 5379,4073 5444,4054 5509,4027 5575,3991 5640,3949 5705,3900 5771,3845 5836,3787 5901,3725 5966,3661 6032,3596 6097,3531 6162,3466 6227,3404 6293,3344 6358,3287 6423,3236 6488,3191 6554,3152 6619,3121 6684,3099 6750,3087 6815,3085 6880,3093 6945,3111 7011,3137 7076,3171 7141,3212 7206,3259 7272,3312 7337,3370 7402,3431 7467,3496 7533,3563 7598,3631 7663,3701 7729,3771 7794,3840 7859,3908 7924,3974 7990,4036 8055,4095 8120,4150 8185,4201 8251,4248 8316,4291 8381,4331 8446,4367 8512,4401 8577,4432 8642,4461 8708,4488 8773,4512 8838,4535 8903,4557 8969,4577 9034,4597 9099,4616 9164,4635 9230,4654 9295,4672 9360,4691 9425,4711 9491,4732 9556,4753 9621,4774 9687,4796 9752,4819 9817,4842 9882,4865 9948,4889 10013,4914 10078,4938 10143,4963 10209,4988 10274,5014 10339,5040 10404,5066 10470,5092 10535,5118 10600,5144 10666,5171 10731,5197 10796,5224 10861,5250 10927,5277 10992,5304 11057,5330 11122,5357 11188,5383 11253,5410 11318,5436 11383,5463 11449,5489 11514,5515 11579,5541 11645,5567 11710,5593 11775,5619 11840,5645 11906,5670 11971,5696 12035,5721 12100,5746 12166,5771 12231,5796 12296,5821 12361,5846 12427,5871 12492,5896 12557,5921 12623,5946 12688,5971 12753,5997 12818,6023 12884,6049 12949,6075 13014,6102 13079,6129 13145,6156 13210,6184 13275,6212 13340,6241 13406,6270 13471,6300 13536,6330 13602,6361 13667,6392 13732,6424 13797,6456 13863,6489 13928,6522 13993,6556 14058,6591 14124,6626 14189,6662 14254,6698 14319,6735 14385,6771 14450,6809 14515,6848 14581,6887 14646,6927 14711,6967 14776,7008 14842,7050 14907,7092 14972,7134 15037,7176 15103,7219 15168,7262 15233,7305 15298,7348 15364,7391 15429,7435 15494,7478 15560,7521 15625,7563 15690,7606 15755,7648 15821,7689 15886,7731 15951,7772 16016,7812 16082,7853 16147,7893 16212,7935 16277,7976 16343,8019 16408,8062 16473,8106 16539,8152 16604,8200 16669,8249 16734,8301 16800,8354 16865,8411 16930,8469 16995,8531 17061,8596 17126,8664 17191,8735 17256,8810 17322,8889 17387,8971 17452,9056 17518,9144 17583,9235 17648,9328 17713,9424 17779,9522 17844,9622 17909,9724 17974,9828 18040,9933 18105,10039 18170,10147 18235,10255 18301,10364 18366,10474 18431,10584 18497,10694"/>
 <text class="TextShape"><tspan class="TextParagraph" font-family="Liberation Sans, sans-serif" font-size="353px" font-weight="400"><tspan class="TextPosition" x="2741" y="11709"><tspan fill="rgb(0,0,0)" stroke="none">8</tspan></tspan></tspan></text>
 <text class="TextShape"><tspan class="TextParagraph" font-family="Liberation Sans, sans-serif" font-size="353px" font-weight="400"><tspan class="TextPosition" x="3954" y="11709"><tspan fill="rgb(0,0,0)" stroke="none">16</tspan></tspan></tspan></text>
 <text class="TextShape"><tspan class="TextParagraph" font-family="Liberation Sans, sans-serif" font-size="353px" font-weight="400"><tspan class="TextPosition" x="5259" y="11709"><tspan fill="rgb(0,0,0)" stroke="none">32</tspan></tspan></tspan></text>
 <text class="TextShape"><tspan class="TextParagraph" font-family="Liberation Sans, sans-serif" font-size="353px" font-weight="400"><tspan class="TextPosition" x="6565" y="11709"><tspan fill="rgb(0,0,0)" stroke="none">64</tspan></tspan></tspan></text>
 <text class="TextShape"><tspan class="TextParagraph" font-family="Liberation Sans, sans-serif" font-size="353px" font-weight="400"><tspan class="TextPosition" x="7777" y="11709"><tspan fill="rgb(0,0,0)" stroke="none">128</tspan></tspan></tspan></text>
 <text class="TextShape"><tspan class="TextParagraph" font-family="Liberation Sans, sans-serif" font-size="353px" font-weight="400"><tspan class="TextPosition" x="9082" y="11709"><tspan fill="rgb(0,0,0)" stroke="none">256</tspan></tspan></tspan></text>
 <text class="TextShape"><tspan class="TextParagraph" font-family="Liberation Sans, sans-serif" font-size="353px" font-weight="400"><tspan class="TextPosition" x="10388" y="11709"><tspan fill="rgb(0,0,0)" stroke="none">512</tspan></tspan></tspan></text>
 <text class="TextShape"><tspan class="TextParagraph" font-family="Liberation Sans, sans-serif" font-size="353px" font-weight="400"><tspan class="TextPosition" x="11759" y="11709"><tspan fill="rgb(0,0,0)" stroke="none">1K</tspan></tspan></tspan></text>
 <text class="TextShape"><tspan class="TextParagraph" font-family="Liberation Sans, sans-serif" font-size="353px" font-weight="400"><tspan class="TextPosition" x="13064" y="11709"><tspan fill="rgb(0,0,0)" stroke="none">2K</tspan></tspan></tspan></text>
 <text class="TextShape"><tspan class="TextParagraph" font-family="Liberation Sans, sans-serif" font-size="353px" font-weight="400"><tspan class="TextPosition" x="14370" y="11709"><tspan fill="rgb(0,0,0)" stroke="none">4K</tspan></tspan></tspan></text>
 <text class="TextShape"><tspan class="TextParagraph" font-family="Liberation Sans, sans-serif" font-size="353px" font-weight="400"><tspan class="TextPosition" x="15675" y="11709"><tspan fill="rgb(0,0,0)" stroke="none">8K</tspan></tspan></tspan></text>
 <text class="TextShape"><tspan class="TextParagraph" font-family="Liberation Sans, sans-serif" font-size="353px" font-weight="400"><tspan class="TextPosition" x="16887" y="11709"><tspan fill="rgb(0,0,0)" stroke="none">16K</tspan></tspan></tspan></text>
 <text class="TextShape"><tspan class="TextParagraph" font-family="Liberation Sans, sans-serif" font-size="353px" font-weight="400"><tspan class="TextPosition" x="18193" y="11709"><tspan fill="rgb(0,0,0)" stroke="none">32K</tspan></tspan></tspan></text>
 <text class="TextShape"><tspan class="TextParagraph" font-family="Liberation Sans, sans-serif" font-size="353px" font-weight="400"><tspan class="TextPosition" x="2399" y="11262"><tspan fill="rgb(0,0,0)" stroke="none">1</tspan></tspan></tspan></text>
 <text class="TextShape"><tspan class="TextParagraph" font-family="Liberation Sans, sans-serif" font-size="353px" font-weight="400"><tspan class="TextPosition" x="2214" y="9780"><tspan fill="rgb(0,0,0)" stroke="none">10</tspan></tspan></tspan></text>
 <text class="TextShape"><tspan class="TextParagraph" font-family="Liberation Sans, sans-serif" font-size="353px" font-weight="400"><tspan class="TextPosition" x="2028" y="8298"><tspan fill="rgb(0,0,0)" stroke="none">100</tspan></tspan></tspan></text>
 <text class="TextShape"><tspan class="TextParagraph" font-family="Liberation Sans, sans-serif" font-size="353px" font-weight="400"><tspan class="TextPosition" x="1843" y="6816"><tspan fill="rgb(0,0,0)" stroke="none">1000</tspan></tspan></tspan></text>
 <text class="TextShape"><tspan class="TextParagraph" font-family="Liberation Sans, sans-serif" font-size="353px" font-weight="400"><tspan class="TextPosition" x="1658" y="5334"><tspan fill="rgb(0,0,0)" stroke="none">10000</tspan></tspan></tspan></text>
 <text class="TextShape"><tspan class="TextParagraph" font-family="Liberation Sans, sans-serif" font-size="353px" font-weight="400"><tspan class="TextPosition" x="1473" y="3852"><tspan fill="rgb(0,0,0)" stroke="none">100000</tspan></tspan></tspan></text>
 <text class="TextShape"><tspan class="TextParagraph" font-family="Liberation Sans, sans-serif" font-size="353px" font-weight="400"><tspan class="TextPosition" x="1288" y="2370"><tspan fill="rgb(0,0,0)" stroke="none">1000000</tspan></tspan></tspan></text>
 <text class="TextShape"><tspan class="TextParagraph" font-family="Liberation Sans, sans-serif" font-size="459px" font-weight="400"><tspan class="TextPosition" x="4929" y="974"><tspan fill="rgb(0,0,0)" stroke="none">Allocation Histogram for Klass- and Non-Klass Allocations</tspan></tspan></tspan><tspan class="TextParagraph" font-family="Liberation Sans, sans-serif" font-size="459px" font-weight="400"><tspan class="TextPosition" x="4929" y="1477"><tspan fill="rgb(0,0,0)" stroke="none">(17620 - mostly JDK - classes loaded)</tspan></tspan></tspan></text>
 <path fill="none" stroke="rgb(245,146,27)" stroke-width="80" stroke-linejoin="round" d="M 19339,6497 L 20139,6497"/>
 <path fill="none" stroke="rgb(0,102,204)" stroke-width="80" stroke-linejoin="round" d="M 19339,6994 L 20139,6994"/>
 <text class="TextShape"><tspan class="TextParagraph" font-family="Liberation Sans, sans-serif" font-size="353px" font-weight="400"><tspan class="TextPosition" x="20239" y="6617"><tspan fill="rgb(0,0,0)" stroke="none">Class Space</tspan></tspan></tspan></text>
 <text class="TextShape"><tspan class="TextParagraph" font-family="Liberation Sans, sans-serif" font-size="353px" font-weight="400"><tspan class="TextPosition" x="20239" y="7114"><tspan fill="rgb(0,0,0)" stroke="none">Non-Class Metaspace</tspan></tspan></tspan></text>
 <text class="TextShape"><tspan class="TextParagraph" font-family="Liberation Sans, sans-serif" font-size="318px" font-weight="400"><tspan class="TextPosition" x="8973" y="12445"><tspan fill="rgb(0,0,0)" stroke="none">Allocation Size</tspan></tspan></tspan></text>
 <text class="TextShape" transform="rotate(-90 634 8878)"><tspan class="TextParagraph" font-family="Liberation Sans, sans-serif" font-size="318px" font-weight="400"><tspan class="TextPosition" x="634" y="8878"><tspan fill="rgb(0,0,0)" stroke="none">Number of Allocations (log)</tspan></tspan></tspan></text>
</svg>